<svg width="348" height="58" viewBox="0 0 348 58" fill="none" xmlns="http://www.w3.org/2000/svg">
<rect x="4" width="50" height="50" rx="2" fill="white"/>
<g filter="url(#filter0_i_58_163)">
<path d="M347.031 7.875V42H342.508V7.875H347.031Z" fill="black"/>
</g>
<g filter="url(#filter1_i_58_163)">
<path d="M323.5 10.8984L312.203 42H307.586L320.594 7.875H323.57L323.5 10.8984ZM332.969 42L321.648 10.8984L321.578 7.875H324.555L337.609 42H332.969ZM332.383 29.3672V33.0703H313.211V29.3672H332.383Z" fill="black"/>
</g>
<g filter="url(#filter2_i_58_163)">
<path d="M305.969 25.7109V29.2734H294.531V25.7109H305.969Z" fill="black"/>
</g>
<g filter="url(#filter3_i_58_163)">
<path d="M271.562 7.875L280.422 25.0078L289.305 7.875H294.438L282.672 29.25V42H278.148V29.25L266.383 7.875H271.562Z" fill="black"/>
</g>
<g filter="url(#filter4_i_58_163)">
<path d="M241.539 7.875H252.836C255.398 7.875 257.562 8.26562 259.328 9.04688C261.109 9.82812 262.461 10.9844 263.383 12.5156C264.32 14.0312 264.789 15.8984 264.789 18.1172C264.789 19.6797 264.469 21.1094 263.828 22.4062C263.203 23.6875 262.297 24.7812 261.109 25.6875C259.938 26.5781 258.531 27.2422 256.891 27.6797L255.625 28.1719H245.008L244.961 24.4922H252.977C254.602 24.4922 255.953 24.2109 257.031 23.6484C258.109 23.0703 258.922 22.2969 259.469 21.3281C260.016 20.3594 260.289 19.2891 260.289 18.1172C260.289 16.8047 260.031 15.6562 259.516 14.6719C259 13.6875 258.188 12.9297 257.078 12.3984C255.984 11.8516 254.57 11.5781 252.836 11.5781H246.062V42H241.539V7.875ZM261.484 42L253.188 26.5312L257.898 26.5078L266.312 41.7188V42H261.484Z" fill="black"/>
</g>
<g filter="url(#filter5_i_58_163)">
<path d="M222.859 10.8984L211.562 42H206.945L219.953 7.875H222.93L222.859 10.8984ZM232.328 42L221.008 10.8984L220.938 7.875H223.914L236.969 42H232.328ZM231.742 29.3672V33.0703H212.57V29.3672H231.742Z" fill="black"/>
</g>
<g filter="url(#filter6_i_58_163)">
<path d="M201.578 7.875V42H197.055V7.875H201.578Z" fill="black"/>
</g>
<g filter="url(#filter7_i_58_163)">
<path d="M191.547 38.3203V42H174.484V38.3203H191.547ZM175.375 7.875V42H170.852V7.875H175.375Z" fill="black"/>
</g>
<g filter="url(#filter8_i_58_163)">
<path d="M162.625 7.875V42H158.102V7.875H162.625Z" fill="black"/>
</g>
<g filter="url(#filter9_i_58_163)">
<path d="M130.609 7.875L138.812 20.9531L147.016 7.875H152.289L141.508 24.7734L152.547 42H147.227L138.812 28.6641L130.398 42H125.078L136.117 24.7734L125.336 7.875H130.609Z" fill="black"/>
</g>
<g filter="url(#filter10_i_58_163)">
<path d="M116.078 7.875H120.578V30.9609C120.578 33.5234 120.008 35.6562 118.867 37.3594C117.727 39.0625 116.211 40.3438 114.32 41.2031C112.445 42.0469 110.406 42.4688 108.203 42.4688C105.891 42.4688 103.797 42.0469 101.922 41.2031C100.062 40.3438 98.5859 39.0625 97.4922 37.3594C96.4141 35.6562 95.875 33.5234 95.875 30.9609V7.875H100.352V30.9609C100.352 32.7422 100.68 34.2109 101.336 35.3672C101.992 36.5234 102.906 37.3828 104.078 37.9453C105.266 38.5078 106.641 38.7891 108.203 38.7891C109.781 38.7891 111.156 38.5078 112.328 37.9453C113.516 37.3828 114.438 36.5234 115.094 35.3672C115.75 34.2109 116.078 32.7422 116.078 30.9609V7.875Z" fill="black"/>
</g>
<g filter="url(#filter11_i_58_163)">
<path d="M78.2969 10.8984L67 42H62.3828L75.3906 7.875H78.3672L78.2969 10.8984ZM87.7656 42L76.4453 10.8984L76.375 7.875H79.3516L92.4062 42H87.7656ZM87.1797 29.3672V33.0703H68.0078V29.3672H87.1797Z" fill="black"/>
</g>
<g filter="url(#filter12_d_58_163)">
<g filter="url(#filter13_i_58_163)">
<path d="M37.3333 0.999999C37.3333 0.447714 37.781 0 38.3333 0H53C53.5523 0 54 0.447715 54 1V49C54 49.5523 53.5523 50 53 50H38.3333C37.781 50 37.3333 49.5523 37.3333 49V0.999999Z" fill="#187660" style="mix-blend-mode:overlay"/>
</g>
<g filter="url(#filter14_i_58_163)">
<path d="M4 0.999999C4 0.447714 4.44772 0 5 0H19.6667C20.219 0 20.6667 0.447715 20.6667 1V49C20.6667 49.5523 20.219 50 19.6667 50H5C4.44771 50 4 49.5523 4 49V0.999999Z" fill="#4682B4" style="mix-blend-mode:overlay"/>
</g>
<path d="M4 0.999999C4 0.447714 4.44772 0 5 0H53C53.5523 0 54 0.447715 54 1V49C54 49.5523 53.5523 50 53 50H5C4.44771 50 4 49.5523 4 49V0.999999Z" fill="#187660" fill-opacity="0.5" style="mix-blend-mode:darken"/>
<path d="M22.1819 13.6364C22.1819 16.1467 20.1468 18.1818 17.6364 18.1818C15.126 18.1818 13.0909 16.1467 13.0909 13.6364C13.0909 11.126 15.126 9.0909 17.6364 9.0909C20.1468 9.0909 22.1819 11.126 22.1819 13.6364Z" fill="white"/>
<path d="M44.909 13.6364C44.909 16.1467 42.874 18.1818 40.3636 18.1818C37.8532 18.1818 35.8181 16.1467 35.8181 13.6364C35.8181 11.126 37.8532 9.0909 40.3636 9.0909C42.874 9.0909 44.909 11.126 44.909 13.6364Z" fill="white"/>
<path d="M13.0909 37.3636C13.0909 36.8113 13.5387 36.3636 14.0909 36.3636H43.9091C44.4614 36.3636 44.9091 36.8113 44.9091 37.3636V39.9091C44.9091 40.4614 44.4614 40.9091 43.9091 40.9091H14.0909C13.5387 40.9091 13.0909 40.4614 13.0909 39.9091V37.3636Z" fill="white"/>
</g>
<g filter="url(#filter15_i_58_163)">
<path d="M37.3333 0.999999C37.3333 0.447714 37.781 0 38.3333 0H53C53.5523 0 54 0.447715 54 1V49C54 49.5523 53.5523 50 53 50H38.3333C37.781 50 37.3333 49.5523 37.3333 49V0.999999Z" fill="#187660" style="mix-blend-mode:overlay"/>
</g>
<g filter="url(#filter16_i_58_163)">
<path d="M4 0.999999C4 0.447714 4.44772 0 5 0H19.6667C20.219 0 20.6667 0.447715 20.6667 1V49C20.6667 49.5523 20.219 50 19.6667 50H5C4.44771 50 4 49.5523 4 49V0.999999Z" fill="#4682B4" style="mix-blend-mode:overlay"/>
</g>
<path d="M4 0.999999C4 0.447714 4.44772 0 5 0H53C53.5523 0 54 0.447715 54 1V49C54 49.5523 53.5523 50 53 50H5C4.44771 50 4 49.5523 4 49V0.999999Z" fill="#4682B4" fill-opacity="0.5" style="mix-blend-mode:darken"/>
<path d="M22.1819 13.6363C22.1819 16.1467 20.1468 18.1818 17.6364 18.1818C15.126 18.1818 13.0909 16.1467 13.0909 13.6363C13.0909 11.126 15.126 9.09088 17.6364 9.09088C20.1468 9.09088 22.1819 11.126 22.1819 13.6363Z" fill="white"/>
<path d="M44.909 13.6363C44.909 16.1467 42.874 18.1818 40.3636 18.1818C37.8532 18.1818 35.8181 16.1467 35.8181 13.6363C35.8181 11.126 37.8532 9.09088 40.3636 9.09088C42.874 9.09088 44.909 11.126 44.909 13.6363Z" fill="white"/>
<path d="M13.0909 37.3636C13.0909 36.8114 13.5387 36.3636 14.0909 36.3636H23H29H35H43.9091C44.4614 36.3636 44.9091 36.8114 44.9091 37.3636V39.9091C44.9091 40.4614 44.4614 40.9091 43.9091 40.9091L43 41L37 41.5L29 42L21 41.5L15 41L14.0909 40.9091C13.5387 40.9091 13.0909 40.4614 13.0909 39.9091V37.3636Z" fill="white"/>
<defs>
<filter id="filter0_i_58_163" x="342.508" y="7.875" width="4.52344" height="38.125" filterUnits="userSpaceOnUse" color-interpolation-filters="sRGB">
<feFlood flood-opacity="0" result="BackgroundImageFix"/>
<feBlend mode="normal" in="SourceGraphic" in2="BackgroundImageFix" result="shape"/>
<feColorMatrix in="SourceAlpha" type="matrix" values="0 0 0 0 0 0 0 0 0 0 0 0 0 0 0 0 0 0 127 0" result="hardAlpha"/>
<feOffset dy="4"/>
<feGaussianBlur stdDeviation="2"/>
<feComposite in2="hardAlpha" operator="arithmetic" k2="-1" k3="1"/>
<feColorMatrix type="matrix" values="0 0 0 0 0 0 0 0 0 0 0 0 0 0 0 0 0 0 0.25 0"/>
<feBlend mode="normal" in2="shape" result="effect1_innerShadow_58_163"/>
</filter>
<filter id="filter1_i_58_163" x="307.586" y="7.875" width="30.0234" height="38.125" filterUnits="userSpaceOnUse" color-interpolation-filters="sRGB">
<feFlood flood-opacity="0" result="BackgroundImageFix"/>
<feBlend mode="normal" in="SourceGraphic" in2="BackgroundImageFix" result="shape"/>
<feColorMatrix in="SourceAlpha" type="matrix" values="0 0 0 0 0 0 0 0 0 0 0 0 0 0 0 0 0 0 127 0" result="hardAlpha"/>
<feOffset dy="4"/>
<feGaussianBlur stdDeviation="2"/>
<feComposite in2="hardAlpha" operator="arithmetic" k2="-1" k3="1"/>
<feColorMatrix type="matrix" values="0 0 0 0 0 0 0 0 0 0 0 0 0 0 0 0 0 0 0.25 0"/>
<feBlend mode="normal" in2="shape" result="effect1_innerShadow_58_163"/>
</filter>
<filter id="filter2_i_58_163" x="294.531" y="25.7109" width="11.4375" height="7.5625" filterUnits="userSpaceOnUse" color-interpolation-filters="sRGB">
<feFlood flood-opacity="0" result="BackgroundImageFix"/>
<feBlend mode="normal" in="SourceGraphic" in2="BackgroundImageFix" result="shape"/>
<feColorMatrix in="SourceAlpha" type="matrix" values="0 0 0 0 0 0 0 0 0 0 0 0 0 0 0 0 0 0 127 0" result="hardAlpha"/>
<feOffset dy="4"/>
<feGaussianBlur stdDeviation="2"/>
<feComposite in2="hardAlpha" operator="arithmetic" k2="-1" k3="1"/>
<feColorMatrix type="matrix" values="0 0 0 0 0 0 0 0 0 0 0 0 0 0 0 0 0 0 0.25 0"/>
<feBlend mode="normal" in2="shape" result="effect1_innerShadow_58_163"/>
</filter>
<filter id="filter3_i_58_163" x="266.383" y="7.875" width="28.0547" height="38.125" filterUnits="userSpaceOnUse" color-interpolation-filters="sRGB">
<feFlood flood-opacity="0" result="BackgroundImageFix"/>
<feBlend mode="normal" in="SourceGraphic" in2="BackgroundImageFix" result="shape"/>
<feColorMatrix in="SourceAlpha" type="matrix" values="0 0 0 0 0 0 0 0 0 0 0 0 0 0 0 0 0 0 127 0" result="hardAlpha"/>
<feOffset dy="4"/>
<feGaussianBlur stdDeviation="2"/>
<feComposite in2="hardAlpha" operator="arithmetic" k2="-1" k3="1"/>
<feColorMatrix type="matrix" values="0 0 0 0 0 0 0 0 0 0 0 0 0 0 0 0 0 0 0.25 0"/>
<feBlend mode="normal" in2="shape" result="effect1_innerShadow_58_163"/>
</filter>
<filter id="filter4_i_58_163" x="241.539" y="7.875" width="24.7734" height="38.125" filterUnits="userSpaceOnUse" color-interpolation-filters="sRGB">
<feFlood flood-opacity="0" result="BackgroundImageFix"/>
<feBlend mode="normal" in="SourceGraphic" in2="BackgroundImageFix" result="shape"/>
<feColorMatrix in="SourceAlpha" type="matrix" values="0 0 0 0 0 0 0 0 0 0 0 0 0 0 0 0 0 0 127 0" result="hardAlpha"/>
<feOffset dy="4"/>
<feGaussianBlur stdDeviation="2"/>
<feComposite in2="hardAlpha" operator="arithmetic" k2="-1" k3="1"/>
<feColorMatrix type="matrix" values="0 0 0 0 0 0 0 0 0 0 0 0 0 0 0 0 0 0 0.25 0"/>
<feBlend mode="normal" in2="shape" result="effect1_innerShadow_58_163"/>
</filter>
<filter id="filter5_i_58_163" x="206.945" y="7.875" width="30.0234" height="38.125" filterUnits="userSpaceOnUse" color-interpolation-filters="sRGB">
<feFlood flood-opacity="0" result="BackgroundImageFix"/>
<feBlend mode="normal" in="SourceGraphic" in2="BackgroundImageFix" result="shape"/>
<feColorMatrix in="SourceAlpha" type="matrix" values="0 0 0 0 0 0 0 0 0 0 0 0 0 0 0 0 0 0 127 0" result="hardAlpha"/>
<feOffset dy="4"/>
<feGaussianBlur stdDeviation="2"/>
<feComposite in2="hardAlpha" operator="arithmetic" k2="-1" k3="1"/>
<feColorMatrix type="matrix" values="0 0 0 0 0 0 0 0 0 0 0 0 0 0 0 0 0 0 0.25 0"/>
<feBlend mode="normal" in2="shape" result="effect1_innerShadow_58_163"/>
</filter>
<filter id="filter6_i_58_163" x="197.055" y="7.875" width="4.52344" height="38.125" filterUnits="userSpaceOnUse" color-interpolation-filters="sRGB">
<feFlood flood-opacity="0" result="BackgroundImageFix"/>
<feBlend mode="normal" in="SourceGraphic" in2="BackgroundImageFix" result="shape"/>
<feColorMatrix in="SourceAlpha" type="matrix" values="0 0 0 0 0 0 0 0 0 0 0 0 0 0 0 0 0 0 127 0" result="hardAlpha"/>
<feOffset dy="4"/>
<feGaussianBlur stdDeviation="2"/>
<feComposite in2="hardAlpha" operator="arithmetic" k2="-1" k3="1"/>
<feColorMatrix type="matrix" values="0 0 0 0 0 0 0 0 0 0 0 0 0 0 0 0 0 0 0.25 0"/>
<feBlend mode="normal" in2="shape" result="effect1_innerShadow_58_163"/>
</filter>
<filter id="filter7_i_58_163" x="170.852" y="7.875" width="20.6953" height="38.125" filterUnits="userSpaceOnUse" color-interpolation-filters="sRGB">
<feFlood flood-opacity="0" result="BackgroundImageFix"/>
<feBlend mode="normal" in="SourceGraphic" in2="BackgroundImageFix" result="shape"/>
<feColorMatrix in="SourceAlpha" type="matrix" values="0 0 0 0 0 0 0 0 0 0 0 0 0 0 0 0 0 0 127 0" result="hardAlpha"/>
<feOffset dy="4"/>
<feGaussianBlur stdDeviation="2"/>
<feComposite in2="hardAlpha" operator="arithmetic" k2="-1" k3="1"/>
<feColorMatrix type="matrix" values="0 0 0 0 0 0 0 0 0 0 0 0 0 0 0 0 0 0 0.25 0"/>
<feBlend mode="normal" in2="shape" result="effect1_innerShadow_58_163"/>
</filter>
<filter id="filter8_i_58_163" x="158.102" y="7.875" width="4.52344" height="38.125" filterUnits="userSpaceOnUse" color-interpolation-filters="sRGB">
<feFlood flood-opacity="0" result="BackgroundImageFix"/>
<feBlend mode="normal" in="SourceGraphic" in2="BackgroundImageFix" result="shape"/>
<feColorMatrix in="SourceAlpha" type="matrix" values="0 0 0 0 0 0 0 0 0 0 0 0 0 0 0 0 0 0 127 0" result="hardAlpha"/>
<feOffset dy="4"/>
<feGaussianBlur stdDeviation="2"/>
<feComposite in2="hardAlpha" operator="arithmetic" k2="-1" k3="1"/>
<feColorMatrix type="matrix" values="0 0 0 0 0 0 0 0 0 0 0 0 0 0 0 0 0 0 0.25 0"/>
<feBlend mode="normal" in2="shape" result="effect1_innerShadow_58_163"/>
</filter>
<filter id="filter9_i_58_163" x="125.078" y="7.875" width="27.4688" height="38.125" filterUnits="userSpaceOnUse" color-interpolation-filters="sRGB">
<feFlood flood-opacity="0" result="BackgroundImageFix"/>
<feBlend mode="normal" in="SourceGraphic" in2="BackgroundImageFix" result="shape"/>
<feColorMatrix in="SourceAlpha" type="matrix" values="0 0 0 0 0 0 0 0 0 0 0 0 0 0 0 0 0 0 127 0" result="hardAlpha"/>
<feOffset dy="4"/>
<feGaussianBlur stdDeviation="2"/>
<feComposite in2="hardAlpha" operator="arithmetic" k2="-1" k3="1"/>
<feColorMatrix type="matrix" values="0 0 0 0 0 0 0 0 0 0 0 0 0 0 0 0 0 0 0.25 0"/>
<feBlend mode="normal" in2="shape" result="effect1_innerShadow_58_163"/>
</filter>
<filter id="filter10_i_58_163" x="95.875" y="7.875" width="24.7031" height="38.5938" filterUnits="userSpaceOnUse" color-interpolation-filters="sRGB">
<feFlood flood-opacity="0" result="BackgroundImageFix"/>
<feBlend mode="normal" in="SourceGraphic" in2="BackgroundImageFix" result="shape"/>
<feColorMatrix in="SourceAlpha" type="matrix" values="0 0 0 0 0 0 0 0 0 0 0 0 0 0 0 0 0 0 127 0" result="hardAlpha"/>
<feOffset dy="4"/>
<feGaussianBlur stdDeviation="2"/>
<feComposite in2="hardAlpha" operator="arithmetic" k2="-1" k3="1"/>
<feColorMatrix type="matrix" values="0 0 0 0 0 0 0 0 0 0 0 0 0 0 0 0 0 0 0.25 0"/>
<feBlend mode="normal" in2="shape" result="effect1_innerShadow_58_163"/>
</filter>
<filter id="filter11_i_58_163" x="62.3828" y="7.875" width="30.0234" height="38.125" filterUnits="userSpaceOnUse" color-interpolation-filters="sRGB">
<feFlood flood-opacity="0" result="BackgroundImageFix"/>
<feBlend mode="normal" in="SourceGraphic" in2="BackgroundImageFix" result="shape"/>
<feColorMatrix in="SourceAlpha" type="matrix" values="0 0 0 0 0 0 0 0 0 0 0 0 0 0 0 0 0 0 127 0" result="hardAlpha"/>
<feOffset dy="4"/>
<feGaussianBlur stdDeviation="2"/>
<feComposite in2="hardAlpha" operator="arithmetic" k2="-1" k3="1"/>
<feColorMatrix type="matrix" values="0 0 0 0 0 0 0 0 0 0 0 0 0 0 0 0 0 0 0.25 0"/>
<feBlend mode="normal" in2="shape" result="effect1_innerShadow_58_163"/>
</filter>
<filter id="filter12_d_58_163" x="0" y="0" width="58" height="58" filterUnits="userSpaceOnUse" color-interpolation-filters="sRGB">
<feFlood flood-opacity="0" result="BackgroundImageFix"/>
<feColorMatrix in="SourceAlpha" type="matrix" values="0 0 0 0 0 0 0 0 0 0 0 0 0 0 0 0 0 0 127 0" result="hardAlpha"/>
<feOffset dy="4"/>
<feGaussianBlur stdDeviation="2"/>
<feComposite in2="hardAlpha" operator="out"/>
<feColorMatrix type="matrix" values="0 0 0 0 0 0 0 0 0 0 0 0 0 0 0 0 0 0 0.25 0"/>
<feBlend mode="normal" in2="BackgroundImageFix" result="effect1_dropShadow_58_163"/>
<feBlend mode="normal" in="SourceGraphic" in2="effect1_dropShadow_58_163" result="shape"/>
</filter>
<filter id="filter13_i_58_163" x="37.3333" y="0" width="16.6667" height="54" filterUnits="userSpaceOnUse" color-interpolation-filters="sRGB">
<feFlood flood-opacity="0" result="BackgroundImageFix"/>
<feBlend mode="normal" in="SourceGraphic" in2="BackgroundImageFix" result="shape"/>
<feColorMatrix in="SourceAlpha" type="matrix" values="0 0 0 0 0 0 0 0 0 0 0 0 0 0 0 0 0 0 127 0" result="hardAlpha"/>
<feOffset dy="4"/>
<feGaussianBlur stdDeviation="2"/>
<feComposite in2="hardAlpha" operator="arithmetic" k2="-1" k3="1"/>
<feColorMatrix type="matrix" values="0 0 0 0 0 0 0 0 0 0 0 0 0 0 0 0 0 0 0.25 0"/>
<feBlend mode="normal" in2="shape" result="effect1_innerShadow_58_163"/>
</filter>
<filter id="filter14_i_58_163" x="4" y="0" width="16.6667" height="54" filterUnits="userSpaceOnUse" color-interpolation-filters="sRGB">
<feFlood flood-opacity="0" result="BackgroundImageFix"/>
<feBlend mode="normal" in="SourceGraphic" in2="BackgroundImageFix" result="shape"/>
<feColorMatrix in="SourceAlpha" type="matrix" values="0 0 0 0 0 0 0 0 0 0 0 0 0 0 0 0 0 0 127 0" result="hardAlpha"/>
<feOffset dy="4"/>
<feGaussianBlur stdDeviation="2"/>
<feComposite in2="hardAlpha" operator="arithmetic" k2="-1" k3="1"/>
<feColorMatrix type="matrix" values="0 0 0 0 0 0 0 0 0 0 0 0 0 0 0 0 0 0 0.25 0"/>
<feBlend mode="normal" in2="shape" result="effect1_innerShadow_58_163"/>
</filter>
<filter id="filter15_i_58_163" x="37.3333" y="0" width="16.6667" height="54" filterUnits="userSpaceOnUse" color-interpolation-filters="sRGB">
<feFlood flood-opacity="0" result="BackgroundImageFix"/>
<feBlend mode="normal" in="SourceGraphic" in2="BackgroundImageFix" result="shape"/>
<feColorMatrix in="SourceAlpha" type="matrix" values="0 0 0 0 0 0 0 0 0 0 0 0 0 0 0 0 0 0 127 0" result="hardAlpha"/>
<feOffset dy="4"/>
<feGaussianBlur stdDeviation="2"/>
<feComposite in2="hardAlpha" operator="arithmetic" k2="-1" k3="1"/>
<feColorMatrix type="matrix" values="0 0 0 0 0 0 0 0 0 0 0 0 0 0 0 0 0 0 0.25 0"/>
<feBlend mode="normal" in2="shape" result="effect1_innerShadow_58_163"/>
</filter>
<filter id="filter16_i_58_163" x="4" y="0" width="16.6667" height="54" filterUnits="userSpaceOnUse" color-interpolation-filters="sRGB">
<feFlood flood-opacity="0" result="BackgroundImageFix"/>
<feBlend mode="normal" in="SourceGraphic" in2="BackgroundImageFix" result="shape"/>
<feColorMatrix in="SourceAlpha" type="matrix" values="0 0 0 0 0 0 0 0 0 0 0 0 0 0 0 0 0 0 127 0" result="hardAlpha"/>
<feOffset dy="4"/>
<feGaussianBlur stdDeviation="2"/>
<feComposite in2="hardAlpha" operator="arithmetic" k2="-1" k3="1"/>
<feColorMatrix type="matrix" values="0 0 0 0 0 0 0 0 0 0 0 0 0 0 0 0 0 0 0.25 0"/>
<feBlend mode="normal" in2="shape" result="effect1_innerShadow_58_163"/>
</filter>
</defs>
</svg>
