<svg width="157" height="98" viewBox="0 0 157 98" fill="none" xmlns="http://www.w3.org/2000/svg">
<path d="M68.8086 0.5C75.8444 0.499991 80.7769 0.499991 87.46 0.5C95.329 0.500011 102.935 3.35517 108.858 8.53516L144.598 39.7881C167.191 59.5459 153.217 96.7528 123.203 96.7529H33.0664C3.0524 96.7529 -10.9217 59.5459 11.6719 39.7881L47.4111 8.53516C53.3346 3.35527 60.9397 0.50001 68.8086 0.5Z" stroke="black" stroke-opacity="0.12"/>
<path d="M33.6346 56.0031L48.6346 63.5031L33.6346 71.0031L18.6346 63.5031L33.6346 56.0031Z" fill="#187660"/>
<path d="M63.6346 56.0031L78.6346 63.5031L63.6346 71.0031L48.6346 63.5031L63.6346 56.0031Z" fill="#187660"/>
<path d="M93.6346 56.0031L108.635 63.5031L93.6346 71.0031L78.6346 63.5031L93.6346 56.0031Z" fill="#187660"/>
<path d="M123.635 56.0031L138.635 63.5031L123.635 71.0031L108.635 63.5031L123.635 56.0031Z" fill="#187660"/>
<path d="M48.6346 64.0031L63.6346 71.5031L48.6346 79.0031L33.6346 71.5031L48.6346 64.0031Z" fill="#4682B4"/>
<path d="M18.6346 64.0031L33.6346 71.5031L18.6346 79.0031L3.63464 71.5031L18.6346 64.0031Z" fill="#187660"/>
<path d="M78.6346 64.0031L93.6346 71.5031L78.6346 79.0031L63.6346 71.5031L78.6346 64.0031Z" fill="#4682B4"/>
<path d="M108.635 64.0031L123.635 71.5031L108.635 79.0031L93.6346 71.5031L108.635 64.0031Z" fill="#4682B4"/>
<path d="M138.635 64.0031L153.635 71.5031L138.635 79.0031L123.635 71.5031L138.635 64.0031Z" fill="#187660"/>
<path d="M33.6346 72.0031L48.6346 79.5031L33.6346 87.0031L18.6346 79.5031L33.6346 72.0031Z" fill="#4682B4"/>
<path d="M63.6346 72.0031L78.6346 79.5031L63.6346 87.0031L48.6346 79.5031L63.6346 72.0031Z" fill="#4682B4"/>
<path d="M93.6346 72.0031L108.635 79.5031L93.6346 87.0031L78.6346 79.5031L93.6346 72.0031Z" fill="#4682B4"/>
<path d="M123.635 72.0031L138.635 79.5031L123.635 87.0031L108.635 79.5031L123.635 72.0031Z" fill="#4682B4"/>
<path d="M48.6346 80.0031L63.6346 87.5031L48.6346 95.0031L33.6346 87.5031L48.6346 80.0031Z" fill="#4682B4"/>
<path d="M78.6346 80.0031L93.6346 87.5031L78.6346 95.0031L63.6346 87.5031L78.6346 80.0031Z" fill="#187660"/>
<path d="M108.635 80.0031L123.635 87.5031L108.635 95.0031L93.6346 87.5031L108.635 80.0031Z" fill="#187660"/>
<g filter="url(#filter0_i_90_195)">
<path d="M36 37H31.25L31.2812 34.5469H36C37.625 34.5469 38.9792 34.2083 40.0625 33.5312C41.1458 32.8438 41.9583 31.8854 42.5 30.6562C43.0521 29.4167 43.3281 27.9688 43.3281 26.3125V24.9219C43.3281 23.6198 43.1719 22.4635 42.8594 21.4531C42.5469 20.4323 42.0885 19.5729 41.4844 18.875C40.8802 18.1667 40.1406 17.6302 39.2656 17.2656C38.401 16.901 37.4062 16.7188 36.2812 16.7188H31.1562V14.25H36.2812C37.7708 14.25 39.1302 14.5 40.3594 15C41.5885 15.4896 42.6458 16.2031 43.5312 17.1406C44.4271 18.0677 45.1146 19.1927 45.5938 20.5156C46.0729 21.8281 46.3125 23.3073 46.3125 24.9531V26.3125C46.3125 27.9583 46.0729 29.4427 45.5938 30.7656C45.1146 32.0781 44.4219 33.1979 43.5156 34.125C42.6198 35.0521 41.5365 35.7656 40.2656 36.2656C39.0052 36.7552 37.5833 37 36 37ZM32.8594 14.25V37H29.8438V14.25H32.8594ZM58.9219 16.2656L51.3906 37H48.3125L56.9844 14.25H58.9688L58.9219 16.2656ZM65.2344 37L57.6875 16.2656L57.6406 14.25H59.625L68.3281 37H65.2344ZM64.8438 28.5781V31.0469H52.0625V28.5781H64.8438ZM84.1094 14.25H87.1094V29.6406C87.1094 31.349 86.7292 32.7708 85.9688 33.9062C85.2083 35.0417 84.1979 35.8958 82.9375 36.4688C81.6875 37.0312 80.3281 37.3125 78.8594 37.3125C77.3177 37.3125 75.9219 37.0312 74.6719 36.4688C73.4323 35.8958 72.4479 35.0417 71.7188 33.9062C71 32.7708 70.6406 31.349 70.6406 29.6406V14.25H73.625V29.6406C73.625 30.8281 73.8438 31.8073 74.2812 32.5781C74.7188 33.349 75.3281 33.9219 76.1094 34.2969C76.901 34.6719 77.8177 34.8594 78.8594 34.8594C79.9115 34.8594 80.8281 34.6719 81.6094 34.2969C82.401 33.9219 83.0156 33.349 83.4531 32.5781C83.8906 31.8073 84.1094 30.8281 84.1094 29.6406V14.25ZM91.8438 14.25H99.375C101.083 14.25 102.526 14.5104 103.703 15.0312C104.891 15.5521 105.792 16.3229 106.406 17.3438C107.031 18.3542 107.344 19.599 107.344 21.0781C107.344 22.1198 107.13 23.0729 106.703 23.9375C106.286 24.7917 105.682 25.5208 104.891 26.125C104.109 26.7188 103.172 27.1615 102.078 27.4531L101.234 27.7812H94.1562L94.125 25.3281H99.4688C100.552 25.3281 101.453 25.1406 102.172 24.7656C102.891 24.3802 103.432 23.8646 103.797 23.2188C104.161 22.5729 104.344 21.8594 104.344 21.0781C104.344 20.2031 104.172 19.4375 103.828 18.7812C103.484 18.125 102.943 17.6198 102.203 17.2656C101.474 16.901 100.531 16.7188 99.375 16.7188H94.8594V37H91.8438V14.25ZM105.141 37L99.6094 26.6875L102.75 26.6719L108.359 36.8125V37H105.141ZM119.984 16.2656L112.453 37H109.375L118.047 14.25H120.031L119.984 16.2656ZM126.297 37L118.75 16.2656L118.703 14.25H120.688L129.391 37H126.297ZM125.906 28.5781V31.0469H113.125V28.5781H125.906Z" fill="black"/>
</g>
<path d="M31.25 37L30.75 36.9936L30.7436 37.5H31.25V37ZM31.2812 34.5469V34.0469H30.7876L30.7813 34.5405L31.2812 34.5469ZM40.0625 33.5312L40.3275 33.9553L40.3304 33.9534L40.0625 33.5312ZM42.5 30.6562L42.0432 30.4528L42.0425 30.4546L42.5 30.6562ZM42.8594 21.4531L42.3813 21.5995L42.3817 21.6009L42.8594 21.4531ZM41.4844 18.875L41.1039 19.1995L41.1063 19.2023L41.4844 18.875ZM39.2656 17.2656L39.0713 17.7263L39.0733 17.7272L39.2656 17.2656ZM31.1562 16.7188H30.6562V17.2188H31.1562V16.7188ZM31.1562 14.25V13.75H30.6562V14.25H31.1562ZM40.3594 15L40.171 15.4632L40.1744 15.4645L40.3594 15ZM43.5312 17.1406L43.1677 17.484L43.1717 17.4881L43.5312 17.1406ZM45.5938 20.5156L45.1236 20.6859L45.1241 20.6871L45.5938 20.5156ZM45.5938 30.7656L46.0634 30.9371L46.0639 30.9359L45.5938 30.7656ZM43.5156 34.125L43.1581 33.7755L43.1561 33.7776L43.5156 34.125ZM40.2656 36.2656L40.4467 36.7317L40.4487 36.7309L40.2656 36.2656ZM32.8594 14.25H33.3594V13.75H32.8594V14.25ZM32.8594 37V37.5H33.3594V37H32.8594ZM29.8438 37H29.3438V37.5H29.8438V37ZM29.8438 14.25V13.75H29.3438V14.25H29.8438ZM36 37V36.5H31.25V37V37.5H36V37ZM31.25 37L31.75 37.0064L31.7812 34.5532L31.2812 34.5469L30.7813 34.5405L30.75 36.9936L31.25 37ZM31.2812 34.5469V35.0469H36V34.5469V34.0469H31.2812V34.5469ZM36 34.5469V35.0469C37.6935 35.0469 39.1457 34.6939 40.3275 33.9552L40.0625 33.5312L39.7975 33.1073C38.8126 33.7228 37.5565 34.0469 36 34.0469V34.5469ZM40.0625 33.5312L40.3304 33.9534C41.5015 33.2102 42.3779 32.1732 42.9575 30.8579L42.5 30.6562L42.0425 30.4546C41.5388 31.5976 40.7902 32.4773 39.7946 33.1091L40.0625 33.5312ZM42.5 30.6562L42.9567 30.8597C43.5429 29.5436 43.8281 28.0237 43.8281 26.3125H43.3281H42.8281C42.8281 27.9138 42.5613 29.2898 42.0433 30.4528L42.5 30.6562ZM43.3281 26.3125H43.8281V24.9219H43.3281H42.8281V26.3125H43.3281ZM43.3281 24.9219H43.8281C43.8281 23.5808 43.6673 22.3732 43.3371 21.3054L42.8594 21.4531L42.3817 21.6009C42.6764 22.5539 42.8281 23.6588 42.8281 24.9219H43.3281ZM42.8594 21.4531L43.3375 21.3068C43.0078 20.2297 42.5188 19.3059 41.8624 18.5477L41.4844 18.875L41.1063 19.2023C41.6583 19.8399 42.086 20.6349 42.3813 21.5995L42.8594 21.4531ZM41.4844 18.875L41.8648 18.5505C41.2086 17.7812 40.4042 17.1984 39.4579 16.8041L39.2656 17.2656L39.0733 17.7272C39.8771 18.0621 40.5518 18.5521 41.104 19.1995L41.4844 18.875ZM39.2656 17.2656L39.4599 16.8049C38.5229 16.4098 37.46 16.2188 36.2812 16.2188V16.7188V17.2188C37.3525 17.2188 38.2792 17.3923 39.0713 17.7263L39.2656 17.2656ZM36.2812 16.7188V16.2188H31.1562V16.7188V17.2188H36.2812V16.7188ZM31.1562 16.7188H31.6562V14.25H31.1562H30.6562V16.7188H31.1562ZM31.1562 14.25V14.75H36.2812V14.25V13.75H31.1562V14.25ZM36.2812 14.25V14.75C37.7141 14.75 39.0085 14.9903 40.171 15.4631L40.3594 15L40.5478 14.5369C39.2519 14.0097 37.8275 13.75 36.2812 13.75V14.25ZM40.3594 15L40.1744 15.4645C41.3377 15.9279 42.3336 16.6007 43.1677 17.4839L43.5312 17.1406L43.8948 16.7973C42.9581 15.8055 41.8394 15.0513 40.5444 14.5355L40.3594 15ZM43.5312 17.1406L43.1717 17.4881C44.0143 18.3601 44.6662 19.4231 45.1236 20.6859L45.5938 20.5156L46.0639 20.3453C45.5629 18.9624 44.8399 17.7754 43.8908 16.7932L43.5312 17.1406ZM45.5938 20.5156L45.1241 20.6871C45.58 21.9358 45.8125 23.3556 45.8125 24.9531H46.3125H46.8125C46.8125 23.259 46.5659 21.7204 46.0634 20.3442L45.5938 20.5156ZM46.3125 24.9531H45.8125V26.3125H46.3125H46.8125V24.9531H46.3125ZM46.3125 26.3125H45.8125C45.8125 27.9099 45.58 29.3354 45.1236 30.5953L45.5938 30.7656L46.0639 30.9359C46.5658 29.55 46.8125 28.0067 46.8125 26.3125H46.3125ZM45.5938 30.7656L45.1241 30.5942C44.6673 31.8453 44.011 32.903 43.1581 33.7755L43.5156 34.125L43.8732 34.4745C44.8328 33.4929 45.5619 32.311 46.0634 30.9371L45.5938 30.7656ZM43.5156 34.125L43.1561 33.7776C42.3129 34.6502 41.2908 35.325 40.0826 35.8003L40.2656 36.2656L40.4487 36.7309C41.7821 36.2063 42.9267 35.454 43.8752 34.4724L43.5156 34.125ZM40.2656 36.2656L40.0846 35.7996C38.8909 36.2632 37.5318 36.5 36 36.5V37V37.5C37.6349 37.5 39.1196 37.2472 40.4467 36.7317L40.2656 36.2656ZM32.8594 14.25H32.3594V37H32.8594H33.3594V14.25H32.8594ZM32.8594 37V36.5H29.8438V37V37.5H32.8594V37ZM29.8438 37H30.3438V14.25H29.8438H29.3438V37H29.8438ZM29.8438 14.25V14.75H32.8594V14.25V13.75H29.8438V14.25ZM58.9219 16.2656L59.3918 16.4363L59.4198 16.3592L59.4217 16.2772L58.9219 16.2656ZM51.3906 37V37.5H51.741L51.8606 37.1707L51.3906 37ZM48.3125 37L47.8453 36.8219L47.5868 37.5H48.3125V37ZM56.9844 14.25V13.75H56.6399L56.5172 14.0719L56.9844 14.25ZM58.9688 14.25L59.4686 14.2616L59.4805 13.75H58.9688V14.25ZM65.2344 37L64.7645 37.171L64.8843 37.5H65.2344V37ZM57.6875 16.2656L57.1876 16.2772L57.1895 16.3594L57.2177 16.4366L57.6875 16.2656ZM57.6406 14.25V13.75H57.1289L57.1408 14.2616L57.6406 14.25ZM59.625 14.25L60.092 14.0713L59.9691 13.75H59.625V14.25ZM68.3281 37V37.5H69.0547L68.7951 36.8213L68.3281 37ZM64.8438 28.5781H65.3438V28.0781H64.8438V28.5781ZM64.8438 31.0469V31.5469H65.3438V31.0469H64.8438ZM52.0625 31.0469H51.5625V31.5469H52.0625V31.0469ZM52.0625 28.5781V28.0781H51.5625V28.5781H52.0625ZM58.9219 16.2656L58.4519 16.0949L50.9207 36.8293L51.3906 37L51.8606 37.1707L59.3918 16.4363L58.9219 16.2656ZM51.3906 37V36.5H48.3125V37V37.5H51.3906V37ZM48.3125 37L48.7797 37.1781L57.4516 14.4281L56.9844 14.25L56.5172 14.0719L47.8453 36.8219L48.3125 37ZM56.9844 14.25V14.75H58.9688V14.25V13.75H56.9844V14.25ZM58.9688 14.25L58.4689 14.2384L58.422 16.254L58.9219 16.2656L59.4217 16.2772L59.4686 14.2616L58.9688 14.25ZM65.2344 37L65.7042 36.829L58.1573 16.0946L57.6875 16.2656L57.2177 16.4366L64.7645 37.171L65.2344 37ZM57.6875 16.2656L58.1874 16.254L58.1405 14.2384L57.6406 14.25L57.1408 14.2616L57.1876 16.2772L57.6875 16.2656ZM57.6406 14.25V14.75H59.625V14.25V13.75H57.6406V14.25ZM59.625 14.25L59.158 14.4287L67.8611 37.1787L68.3281 37L68.7951 36.8213L60.092 14.0713L59.625 14.25ZM68.3281 37V36.5H65.2344V37V37.5H68.3281V37ZM64.8438 28.5781H64.3438V31.0469H64.8438H65.3438V28.5781H64.8438ZM64.8438 31.0469V30.5469H52.0625V31.0469V31.5469H64.8438V31.0469ZM52.0625 31.0469H52.5625V28.5781H52.0625H51.5625V31.0469H52.0625ZM52.0625 28.5781V29.0781H64.8438V28.5781V28.0781H52.0625V28.5781ZM84.1094 14.25V13.75H83.6094V14.25H84.1094ZM87.1094 14.25H87.6094V13.75H87.1094V14.25ZM82.9375 36.4688L83.1427 36.9247L83.1444 36.9239L82.9375 36.4688ZM74.6719 36.4688L74.4621 36.9226L74.4667 36.9247L74.6719 36.4688ZM71.7188 33.9062L71.2963 34.1737L71.298 34.1764L71.7188 33.9062ZM70.6406 14.25V13.75H70.1406V14.25H70.6406ZM73.625 14.25H74.125V13.75H73.625V14.25ZM76.1094 34.2969L75.893 34.7476L75.8953 34.7487L76.1094 34.2969ZM81.6094 34.2969L81.3953 33.845L81.393 33.8461L81.6094 34.2969ZM83.4531 32.5781L83.0183 32.3313L83.4531 32.5781ZM84.1094 14.25V14.75H87.1094V14.25V13.75H84.1094V14.25ZM87.1094 14.25H86.6094V29.6406H87.1094H87.6094V14.25H87.1094ZM87.1094 29.6406H86.6094C86.6094 31.2747 86.2462 32.5934 85.5533 33.628L85.9688 33.9062L86.3842 34.1845C87.2121 32.9483 87.6094 31.4232 87.6094 29.6406H87.1094ZM85.9688 33.9062L85.5533 33.628C84.8453 34.6852 83.9076 35.4786 82.7306 36.0136L82.9375 36.4688L83.1444 36.9239C84.4882 36.3131 85.5713 35.3982 86.3842 34.1845L85.9688 33.9062ZM82.9375 36.4688L82.7323 36.0128C81.5514 36.5442 80.2625 36.8125 78.8594 36.8125V37.3125V37.8125C80.3937 37.8125 81.8236 37.5183 83.1427 36.9247L82.9375 36.4688ZM78.8594 37.3125V36.8125C77.3796 36.8125 76.0549 36.5428 74.8771 36.0128L74.6719 36.4688L74.4667 36.9247C75.7888 37.5197 77.2558 37.8125 78.8594 37.8125V37.3125ZM74.6719 36.4688L74.8816 36.0149C73.7273 35.4814 72.8166 34.6904 72.1395 33.6361L71.7188 33.9062L71.298 34.1764C72.0793 35.3929 73.1373 36.3103 74.4621 36.9226L74.6719 36.4688ZM71.7188 33.9062L72.1412 33.6388C71.4852 32.6025 71.1406 31.2797 71.1406 29.6406H70.6406H70.1406C70.1406 31.4182 70.5148 32.9392 71.2963 34.1737L71.7188 33.9062ZM70.6406 29.6406H71.1406V14.25H70.6406H70.1406V29.6406H70.6406ZM70.6406 14.25V14.75H73.625V14.25V13.75H70.6406V14.25ZM73.625 14.25H73.125V29.6406H73.625H74.125V14.25H73.625ZM73.625 29.6406H73.125C73.125 30.8863 73.3541 31.9575 73.8464 32.8249L74.2812 32.5781L74.7161 32.3313C74.3334 31.657 74.125 30.7699 74.125 29.6406H73.625ZM74.2812 32.5781L73.8464 32.8249C74.333 33.6823 75.0176 34.3275 75.893 34.7476L76.1094 34.2969L76.3257 33.8461C75.6386 33.5163 75.1045 33.0156 74.7161 32.3313L74.2812 32.5781ZM76.1094 34.2969L75.8953 34.7487C76.7654 35.1609 77.7575 35.3594 78.8594 35.3594V34.8594V34.3594C77.8779 34.3594 77.0367 34.1829 76.3234 33.845L76.1094 34.2969ZM78.8594 34.8594V35.3594C79.9706 35.3594 80.9641 35.1612 81.8257 34.7476L81.6094 34.2969L81.393 33.8461C80.6922 34.1825 79.8523 34.3594 78.8594 34.3594V34.8594ZM81.6094 34.2969L81.8234 34.7487C82.7092 34.3292 83.4003 33.6841 83.888 32.8249L83.4531 32.5781L83.0183 32.3313C82.6309 33.0139 82.0929 33.5146 81.3953 33.845L81.6094 34.2969ZM83.4531 32.5781L83.888 32.8249C84.3803 31.9575 84.6094 30.8863 84.6094 29.6406H84.1094H83.6094C83.6094 30.7699 83.401 31.657 83.0183 32.3313L83.4531 32.5781ZM84.1094 29.6406H84.6094V14.25H84.1094H83.6094V29.6406H84.1094ZM91.8438 14.25V13.75H91.3438V14.25H91.8438ZM103.703 15.0312L103.501 15.4885L103.502 15.4891L103.703 15.0312ZM106.406 17.3438L105.978 17.6017L105.981 17.6068L106.406 17.3438ZM106.703 23.9375L106.255 23.7161L106.254 23.7183L106.703 23.9375ZM104.891 26.125L105.193 26.5231L105.194 26.5225L104.891 26.125ZM102.078 27.4531L101.949 26.97L101.923 26.9771L101.897 26.9871L102.078 27.4531ZM101.234 27.7812V28.2812H101.328L101.416 28.2473L101.234 27.7812ZM94.1562 27.7812L93.6563 27.7876L93.6626 28.2812H94.1562V27.7812ZM94.125 25.3281V24.8281H93.6186L93.625 25.3345L94.125 25.3281ZM102.172 24.7656L102.403 25.2089L102.408 25.2063L102.172 24.7656ZM102.203 17.2656L101.979 17.7129L101.987 17.7166L102.203 17.2656ZM94.8594 16.7188V16.2188H94.3594V16.7188H94.8594ZM94.8594 37V37.5H95.3594V37H94.8594ZM91.8438 37H91.3438V37.5H91.8438V37ZM105.141 37L104.7 37.2363L104.841 37.5H105.141V37ZM99.6094 26.6875L99.6069 26.1875L98.776 26.1916L99.1688 26.9238L99.6094 26.6875ZM102.75 26.6719L103.188 26.4299L103.044 26.1704L102.748 26.1719L102.75 26.6719ZM108.359 36.8125H108.859V36.6834L108.797 36.5705L108.359 36.8125ZM108.359 37V37.5H108.859V37H108.359ZM91.8438 14.25V14.75H99.375V14.25V13.75H91.8438V14.25ZM99.375 14.25V14.75C101.035 14.75 102.405 15.0035 103.501 15.4885L103.703 15.0312L103.905 14.574C102.647 14.0174 101.131 13.75 99.375 13.75V14.25ZM103.703 15.0312L103.502 15.4891C104.604 15.9723 105.421 16.6773 105.978 17.6016L106.406 17.3438L106.835 17.0859C106.162 15.9686 105.177 15.1319 103.904 14.5734L103.703 15.0312ZM106.406 17.3438L105.981 17.6068C106.546 18.5209 106.844 19.6692 106.844 21.0781H107.344H107.844C107.844 19.5287 107.516 18.1874 106.831 17.0807L106.406 17.3438ZM107.344 21.0781H106.844C106.844 22.0493 106.645 22.9258 106.255 23.7161L106.703 23.9375L107.151 24.1589C107.615 23.2201 107.844 22.1903 107.844 21.0781H107.344ZM106.703 23.9375L106.254 23.7183C105.873 24.4991 105.32 25.1683 104.587 25.7275L104.891 26.125L105.194 26.5225C106.044 25.8734 106.7 25.0842 107.153 24.1567L106.703 23.9375ZM104.891 26.125L104.588 25.7269C103.866 26.2757 102.99 26.6926 101.949 26.97L102.078 27.4531L102.207 27.9362C103.354 27.6304 104.353 27.1618 105.193 26.5231L104.891 26.125ZM102.078 27.4531L101.897 26.9871L101.053 27.3152L101.234 27.7812L101.416 28.2473L102.259 27.9191L102.078 27.4531ZM101.234 27.7812V27.2812H94.1562V27.7812V28.2812H101.234V27.7812ZM94.1562 27.7812L94.6562 27.7749L94.625 25.3218L94.125 25.3281L93.625 25.3345L93.6563 27.7876L94.1562 27.7812ZM94.125 25.3281V25.8281H99.4688V25.3281V24.8281H94.125V25.3281ZM99.4688 25.3281V25.8281C100.607 25.8281 101.593 25.6316 102.403 25.2089L102.172 24.7656L101.941 24.3223C101.313 24.6497 100.498 24.8281 99.4688 24.8281V25.3281ZM102.172 24.7656L102.408 25.2063C103.202 24.7807 103.817 24.201 104.232 23.4645L103.797 23.2188L103.361 22.973C103.048 23.5282 102.579 23.9797 101.936 24.325L102.172 24.7656ZM103.797 23.2188L104.232 23.4645C104.641 22.7397 104.844 21.9407 104.844 21.0781H104.344H103.844C103.844 21.778 103.681 22.4062 103.361 22.973L103.797 23.2188ZM104.344 21.0781H104.844C104.844 20.1369 104.659 19.289 104.271 18.5492L103.828 18.7812L103.385 19.0133C103.685 19.586 103.844 20.2693 103.844 21.0781H104.344ZM103.828 18.7812L104.271 18.5492C103.872 17.7872 103.245 17.2102 102.419 16.8147L102.203 17.2656L101.987 17.7166C102.64 18.0294 103.097 18.4628 103.385 19.0133L103.828 18.7812ZM102.203 17.2656L102.427 16.8184C101.605 16.4077 100.579 16.2188 99.375 16.2188V16.7188V17.2188C100.484 17.2188 101.343 17.3944 101.98 17.7128L102.203 17.2656ZM99.375 16.7188V16.2188H94.8594V16.7188V17.2188H99.375V16.7188ZM94.8594 16.7188H94.3594V37H94.8594H95.3594V16.7188H94.8594ZM94.8594 37V36.5H91.8438V37V37.5H94.8594V37ZM91.8438 37H92.3438V14.25H91.8438H91.3438V37H91.8438ZM105.141 37L105.581 36.7637L100.05 26.4512L99.6094 26.6875L99.1688 26.9238L104.7 37.2363L105.141 37ZM99.6094 26.6875L99.6119 27.1875L102.752 27.1719L102.75 26.6719L102.748 26.1719L99.6069 26.1875L99.6094 26.6875ZM102.75 26.6719L102.312 26.9139L107.922 37.0545L108.359 36.8125L108.797 36.5705L103.188 26.4299L102.75 26.6719ZM108.359 36.8125H107.859V37H108.359H108.859V36.8125H108.359ZM108.359 37V36.5H105.141V37V37.5H108.359V37ZM119.984 16.2656L120.454 16.4363L120.482 16.3592L120.484 16.2772L119.984 16.2656ZM112.453 37V37.5H112.803L112.923 37.1707L112.453 37ZM109.375 37L108.908 36.8219L108.649 37.5H109.375V37ZM118.047 14.25V13.75H117.702L117.58 14.0719L118.047 14.25ZM120.031 14.25L120.531 14.2616L120.543 13.75H120.031V14.25ZM126.297 37L125.827 37.171L125.947 37.5H126.297V37ZM118.75 16.2656L118.25 16.2772L118.252 16.3594L118.28 16.4366L118.75 16.2656ZM118.703 14.25V13.75H118.191L118.203 14.2616L118.703 14.25ZM120.688 14.25L121.154 14.0713L121.032 13.75H120.688V14.25ZM129.391 37V37.5H130.117L129.858 36.8213L129.391 37ZM125.906 28.5781H126.406V28.0781H125.906V28.5781ZM125.906 31.0469V31.5469H126.406V31.0469H125.906ZM113.125 31.0469H112.625V31.5469H113.125V31.0469ZM113.125 28.5781V28.0781H112.625V28.5781H113.125ZM119.984 16.2656L119.514 16.0949L111.983 36.8293L112.453 37L112.923 37.1707L120.454 16.4363L119.984 16.2656ZM112.453 37V36.5H109.375V37V37.5H112.453V37ZM109.375 37L109.842 37.1781L118.514 14.4281L118.047 14.25L117.58 14.0719L108.908 36.8219L109.375 37ZM118.047 14.25V14.75H120.031V14.25V13.75H118.047V14.25ZM120.031 14.25L119.531 14.2384L119.485 16.254L119.984 16.2656L120.484 16.2772L120.531 14.2616L120.031 14.25ZM126.297 37L126.767 36.829L119.22 16.0946L118.75 16.2656L118.28 16.4366L125.827 37.171L126.297 37ZM118.75 16.2656L119.25 16.254L119.203 14.2384L118.703 14.25L118.203 14.2616L118.25 16.2772L118.75 16.2656ZM118.703 14.25V14.75H120.688V14.25V13.75H118.703V14.25ZM120.688 14.25L120.221 14.4287L128.924 37.1787L129.391 37L129.858 36.8213L121.154 14.0713L120.688 14.25ZM129.391 37V36.5H126.297V37V37.5H129.391V37ZM125.906 28.5781H125.406V31.0469H125.906H126.406V28.5781H125.906ZM125.906 31.0469V30.5469H113.125V31.0469V31.5469H125.906V31.0469ZM113.125 31.0469H113.625V28.5781H113.125H112.625V31.0469H113.125ZM113.125 28.5781V29.0781H125.906V28.5781V28.0781H113.125V28.5781Z" fill="black"/>
<defs>
<filter id="filter0_i_90_195" x="29.3438" y="13.75" width="100.773" height="28.0625" filterUnits="userSpaceOnUse" color-interpolation-filters="sRGB">
<feFlood flood-opacity="0" result="BackgroundImageFix"/>
<feBlend mode="normal" in="SourceGraphic" in2="BackgroundImageFix" result="shape"/>
<feColorMatrix in="SourceAlpha" type="matrix" values="0 0 0 0 0 0 0 0 0 0 0 0 0 0 0 0 0 0 127 0" result="hardAlpha"/>
<feOffset dy="4"/>
<feGaussianBlur stdDeviation="2"/>
<feComposite in2="hardAlpha" operator="arithmetic" k2="-1" k3="1"/>
<feColorMatrix type="matrix" values="0 0 0 0 0 0 0 0 0 0 0 0 0 0 0 0 0 0 0.25 0"/>
<feBlend mode="normal" in2="shape" result="effect1_innerShadow_90_195"/>
</filter>
</defs>
</svg>
