<svg width="200" height="200" viewBox="0 0 200 200" fill="none" xmlns="http://www.w3.org/2000/svg">
<g filter="url(#filter0_i_91_196)">
<path d="M49.3594 143.125L53.875 127.25H56.0625L54.7969 133.422L49.9375 150H47.7656L49.3594 143.125ZM44.6875 127.25L48.2812 142.812L49.3594 150H47.2031L41.6875 127.25H44.6875ZM61.9062 142.797L65.4219 127.25H68.4375L62.9375 150H60.7812L61.9062 142.797ZM56.3906 127.25L60.7812 143.125L62.375 150H60.2031L55.5156 133.422L54.2344 127.25H56.3906ZM79.5156 129.266L71.9844 150H68.9062L77.5781 127.25H79.5625L79.5156 129.266ZM85.8281 150L78.2812 129.266L78.2344 127.25H80.2188L88.9219 150H85.8281ZM85.4375 141.578V144.047H72.6562V141.578H85.4375ZM105.766 147.547V150H94.3906V147.547H105.766ZM94.9844 127.25V150H91.9688V127.25H94.9844ZM113.312 127.25V150H110.344V127.25H113.312ZM120.625 127.25V129.719H103.047V127.25H120.625ZM138.453 147.547V150H126.406V147.547H138.453ZM127.016 127.25V150H124V127.25H127.016ZM136.859 137.031V139.484H126.406V137.031H136.859ZM138.297 127.25V129.719H126.406V127.25H138.297ZM142.188 127.25H149.719C151.427 127.25 152.87 127.51 154.047 128.031C155.234 128.552 156.135 129.323 156.75 130.344C157.375 131.354 157.688 132.599 157.688 134.078C157.688 135.12 157.474 136.073 157.047 136.938C156.63 137.792 156.026 138.521 155.234 139.125C154.453 139.719 153.516 140.161 152.422 140.453L151.578 140.781H144.5L144.469 138.328H149.812C150.896 138.328 151.797 138.141 152.516 137.766C153.234 137.38 153.776 136.865 154.141 136.219C154.505 135.573 154.688 134.859 154.688 134.078C154.688 133.203 154.516 132.438 154.172 131.781C153.828 131.125 153.286 130.62 152.547 130.266C151.818 129.901 150.875 129.719 149.719 129.719H145.203V150H142.188V127.25ZM155.484 150L149.953 139.688L153.094 139.672L158.703 149.812V150H155.484Z" fill="black"/>
</g>
<path d="M49.3594 143.125L48.8785 142.988L48.8751 143L48.8723 143.012L49.3594 143.125ZM53.875 127.25V126.75H53.4974L53.3941 127.113L53.875 127.25ZM56.0625 127.25L56.5523 127.35L56.6754 126.75H56.0625V127.25ZM54.7969 133.422L55.2767 133.563L55.2825 133.543L55.2867 133.522L54.7969 133.422ZM49.9375 150V150.5H50.312L50.4173 150.141L49.9375 150ZM47.7656 150L47.2785 149.887L47.1365 150.5H47.7656V150ZM44.6875 127.25L45.1747 127.137L45.0852 126.75H44.6875V127.25ZM48.2812 142.812L48.7757 142.738L48.7728 142.719L48.7684 142.7L48.2812 142.812ZM49.3594 150V150.5H49.94L49.8538 149.926L49.3594 150ZM47.2031 150L46.7172 150.118L46.8099 150.5H47.2031V150ZM41.6875 127.25V126.75H41.0518L41.2016 127.368L41.6875 127.25ZM61.9062 142.797L61.4186 142.687L61.4148 142.703L61.4122 142.72L61.9062 142.797ZM65.4219 127.25V126.75H65.0223L64.9342 127.14L65.4219 127.25ZM68.4375 127.25L68.9235 127.367L69.0728 126.75H68.4375V127.25ZM62.9375 150V150.5H63.331L63.4235 150.117L62.9375 150ZM60.7812 150L60.2872 149.923L60.1971 150.5H60.7812V150ZM56.3906 127.25L56.8725 127.117L56.7711 126.75H56.3906V127.25ZM60.7812 143.125L61.2683 143.012L61.266 143.002L61.2632 142.992L60.7812 143.125ZM62.375 150V150.5H63.0042L62.8621 149.887L62.375 150ZM60.2031 150L59.722 150.136L59.8249 150.5H60.2031V150ZM55.5156 133.422L55.0261 133.524L55.0297 133.541L55.0345 133.558L55.5156 133.422ZM54.2344 127.25V126.75H53.6199L53.7448 127.352L54.2344 127.25ZM49.3594 143.125L49.8403 143.262L54.3559 127.387L53.875 127.25L53.3941 127.113L48.8785 142.988L49.3594 143.125ZM53.875 127.25V127.75H56.0625V127.25V126.75H53.875V127.25ZM56.0625 127.25L55.5727 127.15L54.3071 133.321L54.7969 133.422L55.2867 133.522L56.5523 127.35L56.0625 127.25ZM54.7969 133.422L54.3171 133.281L49.4577 149.859L49.9375 150L50.4173 150.141L55.2767 133.563L54.7969 133.422ZM49.9375 150V149.5H47.7656V150V150.5H49.9375V150ZM47.7656 150L48.2527 150.113L49.8465 143.238L49.3594 143.125L48.8723 143.012L47.2785 149.887L47.7656 150ZM44.6875 127.25L44.2003 127.363L47.7941 142.925L48.2812 142.812L48.7684 142.7L45.1747 127.137L44.6875 127.25ZM48.2812 142.812L47.7868 142.887L48.8649 150.074L49.3594 150L49.8538 149.926L48.7757 142.738L48.2812 142.812ZM49.3594 150V149.5H47.2031V150V150.5H49.3594V150ZM47.2031 150L47.689 149.882L42.1734 127.132L41.6875 127.25L41.2016 127.368L46.7172 150.118L47.2031 150ZM41.6875 127.25V127.75H44.6875V127.25V126.75H41.6875V127.25ZM61.9062 142.797L62.3939 142.907L65.9096 127.36L65.4219 127.25L64.9342 127.14L61.4186 142.687L61.9062 142.797ZM65.4219 127.25V127.75H68.4375V127.25V126.75H65.4219V127.25ZM68.4375 127.25L67.9515 127.133L62.4515 149.883L62.9375 150L63.4235 150.117L68.9235 127.367L68.4375 127.25ZM62.9375 150V149.5H60.7812V150V150.5H62.9375V150ZM60.7812 150L61.2753 150.077L62.4003 142.874L61.9062 142.797L61.4122 142.72L60.2872 149.923L60.7812 150ZM56.3906 127.25L55.9087 127.383L60.2993 143.258L60.7812 143.125L61.2632 142.992L56.8725 127.117L56.3906 127.25ZM60.7812 143.125L60.2942 143.238L61.8879 150.113L62.375 150L62.8621 149.887L61.2683 143.012L60.7812 143.125ZM62.375 150V149.5H60.2031V150V150.5H62.375V150ZM60.2031 150L60.6843 149.864L55.9968 133.286L55.5156 133.422L55.0345 133.558L59.722 150.136L60.2031 150ZM55.5156 133.422L56.0052 133.32L54.7239 127.148L54.2344 127.25L53.7448 127.352L55.0261 133.524L55.5156 133.422ZM54.2344 127.25V127.75H56.3906V127.25V126.75H54.2344V127.25ZM79.5156 129.266L79.9856 129.436L80.0136 129.359L80.0155 129.277L79.5156 129.266ZM71.9844 150V150.5H72.3347L72.4543 150.171L71.9844 150ZM68.9062 150L68.439 149.822L68.1806 150.5H68.9062V150ZM77.5781 127.25V126.75H77.2336L77.1109 127.072L77.5781 127.25ZM79.5625 127.25L80.0624 127.262L80.0743 126.75H79.5625V127.25ZM85.8281 150L85.3583 150.171L85.478 150.5H85.8281V150ZM78.2812 129.266L77.7814 129.277L77.7833 129.359L77.8114 129.437L78.2812 129.266ZM78.2344 127.25V126.75H77.7226L77.7345 127.262L78.2344 127.25ZM80.2188 127.25L80.6857 127.071L80.5628 126.75H80.2188V127.25ZM88.9219 150V150.5H89.6485L89.3889 149.821L88.9219 150ZM85.4375 141.578H85.9375V141.078H85.4375V141.578ZM85.4375 144.047V144.547H85.9375V144.047H85.4375ZM72.6562 144.047H72.1562V144.547H72.6562V144.047ZM72.6562 141.578V141.078H72.1562V141.578H72.6562ZM79.5156 129.266L79.0457 129.095L71.5144 149.829L71.9844 150L72.4543 150.171L79.9856 129.436L79.5156 129.266ZM71.9844 150V149.5H68.9062V150V150.5H71.9844V150ZM68.9062 150L69.3735 150.178L78.0453 127.428L77.5781 127.25L77.1109 127.072L68.439 149.822L68.9062 150ZM77.5781 127.25V127.75H79.5625V127.25V126.75H77.5781V127.25ZM79.5625 127.25L79.0626 127.238L79.0158 129.254L79.5156 129.266L80.0155 129.277L80.0624 127.262L79.5625 127.25ZM85.8281 150L86.298 149.829L78.7511 129.095L78.2812 129.266L77.8114 129.437L85.3583 150.171L85.8281 150ZM78.2812 129.266L78.7811 129.254L78.7342 127.238L78.2344 127.25L77.7345 127.262L77.7814 129.277L78.2812 129.266ZM78.2344 127.25V127.75H80.2188V127.25V126.75H78.2344V127.25ZM80.2188 127.25L79.7518 127.429L88.4549 150.179L88.9219 150L89.3889 149.821L80.6857 127.071L80.2188 127.25ZM88.9219 150V149.5H85.8281V150V150.5H88.9219V150ZM85.4375 141.578H84.9375V144.047H85.4375H85.9375V141.578H85.4375ZM85.4375 144.047V143.547H72.6562V144.047V144.547H85.4375V144.047ZM72.6562 144.047H73.1562V141.578H72.6562H72.1562V144.047H72.6562ZM72.6562 141.578V142.078H85.4375V141.578V141.078H72.6562V141.578ZM105.766 147.547H106.266V147.047H105.766V147.547ZM105.766 150V150.5H106.266V150H105.766ZM94.3906 150H93.8906V150.5H94.3906V150ZM94.3906 147.547V147.047H93.8906V147.547H94.3906ZM94.9844 127.25H95.4844V126.75H94.9844V127.25ZM94.9844 150V150.5H95.4844V150H94.9844ZM91.9688 150H91.4688V150.5H91.9688V150ZM91.9688 127.25V126.75H91.4688V127.25H91.9688ZM105.766 147.547H105.266V150H105.766H106.266V147.547H105.766ZM105.766 150V149.5H94.3906V150V150.5H105.766V150ZM94.3906 150H94.8906V147.547H94.3906H93.8906V150H94.3906ZM94.3906 147.547V148.047H105.766V147.547V147.047H94.3906V147.547ZM94.9844 127.25H94.4844V150H94.9844H95.4844V127.25H94.9844ZM94.9844 150V149.5H91.9688V150V150.5H94.9844V150ZM91.9688 150H92.4688V127.25H91.9688H91.4688V150H91.9688ZM91.9688 127.25V127.75H94.9844V127.25V126.75H91.9688V127.25ZM113.312 127.25H113.812V126.75H113.312V127.25ZM113.312 150V150.5H113.812V150H113.312ZM110.344 150H109.844V150.5H110.344V150ZM110.344 127.25V126.75H109.844V127.25H110.344ZM120.625 127.25H121.125V126.75H120.625V127.25ZM120.625 129.719V130.219H121.125V129.719H120.625ZM103.047 129.719H102.547V130.219H103.047V129.719ZM103.047 127.25V126.75H102.547V127.25H103.047ZM113.312 127.25H112.812V150H113.312H113.812V127.25H113.312ZM113.312 150V149.5H110.344V150V150.5H113.312V150ZM110.344 150H110.844V127.25H110.344H109.844V150H110.344ZM110.344 127.25V127.75H113.312V127.25V126.75H110.344V127.25ZM120.625 127.25H120.125V129.719H120.625H121.125V127.25H120.625ZM120.625 129.719V129.219H103.047V129.719V130.219H120.625V129.719ZM103.047 129.719H103.547V127.25H103.047H102.547V129.719H103.047ZM103.047 127.25V127.75H120.625V127.25V126.75H103.047V127.25ZM138.453 147.547H138.953V147.047H138.453V147.547ZM138.453 150V150.5H138.953V150H138.453ZM126.406 150H125.906V150.5H126.406V150ZM126.406 147.547V147.047H125.906V147.547H126.406ZM127.016 127.25H127.516V126.75H127.016V127.25ZM127.016 150V150.5H127.516V150H127.016ZM124 150H123.5V150.5H124V150ZM124 127.25V126.75H123.5V127.25H124ZM136.859 137.031H137.359V136.531H136.859V137.031ZM136.859 139.484V139.984H137.359V139.484H136.859ZM126.406 139.484H125.906V139.984H126.406V139.484ZM126.406 137.031V136.531H125.906V137.031H126.406ZM138.297 127.25H138.797V126.75H138.297V127.25ZM138.297 129.719V130.219H138.797V129.719H138.297ZM126.406 129.719H125.906V130.219H126.406V129.719ZM126.406 127.25V126.75H125.906V127.25H126.406ZM138.453 147.547H137.953V150H138.453H138.953V147.547H138.453ZM138.453 150V149.5H126.406V150V150.5H138.453V150ZM126.406 150H126.906V147.547H126.406H125.906V150H126.406ZM126.406 147.547V148.047H138.453V147.547V147.047H126.406V147.547ZM127.016 127.25H126.516V150H127.016H127.516V127.25H127.016ZM127.016 150V149.5H124V150V150.5H127.016V150ZM124 150H124.5V127.25H124H123.5V150H124ZM124 127.25V127.75H127.016V127.25V126.75H124V127.25ZM136.859 137.031H136.359V139.484H136.859H137.359V137.031H136.859ZM136.859 139.484V138.984H126.406V139.484V139.984H136.859V139.484ZM126.406 139.484H126.906V137.031H126.406H125.906V139.484H126.406ZM126.406 137.031V137.531H136.859V137.031V136.531H126.406V137.031ZM138.297 127.25H137.797V129.719H138.297H138.797V127.25H138.297ZM138.297 129.719V129.219H126.406V129.719V130.219H138.297V129.719ZM126.406 129.719H126.906V127.25H126.406H125.906V129.719H126.406ZM126.406 127.25V127.75H138.297V127.25V126.75H126.406V127.25ZM142.188 127.25V126.75H141.688V127.25H142.188ZM154.047 128.031L153.845 128.488L153.846 128.489L154.047 128.031ZM156.75 130.344L156.322 130.602L156.325 130.607L156.75 130.344ZM157.047 136.938L156.599 136.716L156.597 136.718L157.047 136.938ZM155.234 139.125L155.537 139.523L155.538 139.522L155.234 139.125ZM152.422 140.453L152.293 139.97L152.266 139.977L152.241 139.987L152.422 140.453ZM151.578 140.781V141.281H151.672L151.759 141.247L151.578 140.781ZM144.5 140.781L144 140.788L144.006 141.281H144.5V140.781ZM144.469 138.328V137.828H143.962L143.969 138.334L144.469 138.328ZM152.516 137.766L152.747 138.209L152.752 138.206L152.516 137.766ZM152.547 130.266L152.323 130.713L152.331 130.717L152.547 130.266ZM145.203 129.719V129.219H144.703V129.719H145.203ZM145.203 150V150.5H145.703V150H145.203ZM142.188 150H141.688V150.5H142.188V150ZM155.484 150L155.044 150.236L155.185 150.5H155.484V150ZM149.953 139.688L149.951 139.188L149.12 139.192L149.513 139.924L149.953 139.688ZM153.094 139.672L153.531 139.43L153.388 139.17L153.091 139.172L153.094 139.672ZM158.703 149.812H159.203V149.683L159.141 149.57L158.703 149.812ZM158.703 150V150.5H159.203V150H158.703ZM142.188 127.25V127.75H149.719V127.25V126.75H142.188V127.25ZM149.719 127.25V127.75C151.379 127.75 152.748 128.003 153.845 128.488L154.047 128.031L154.249 127.574C152.991 127.017 151.475 126.75 149.719 126.75V127.25ZM154.047 128.031L153.846 128.489C154.948 128.972 155.765 129.677 156.322 130.602L156.75 130.344L157.178 130.086C156.506 128.969 155.521 128.132 154.248 127.573L154.047 128.031ZM156.75 130.344L156.325 130.607C156.89 131.521 157.188 132.669 157.188 134.078H157.688H158.188C158.188 132.529 157.86 131.187 157.175 130.081L156.75 130.344ZM157.688 134.078H157.188C157.188 135.049 156.989 135.926 156.599 136.716L157.047 136.938L157.495 137.159C157.959 136.22 158.188 135.19 158.188 134.078H157.688ZM157.047 136.938L156.597 136.718C156.217 137.499 155.664 138.168 154.931 138.728L155.234 139.125L155.538 139.522C156.388 138.873 157.044 138.084 157.496 137.157L157.047 136.938ZM155.234 139.125L154.932 138.727C154.21 139.276 153.333 139.693 152.293 139.97L152.422 140.453L152.551 140.936C153.698 140.63 154.697 140.162 155.537 139.523L155.234 139.125ZM152.422 140.453L152.241 139.987L151.397 140.315L151.578 140.781L151.759 141.247L152.603 140.919L152.422 140.453ZM151.578 140.781V140.281H144.5V140.781V141.281H151.578V140.781ZM144.5 140.781L145 140.775L144.969 138.322L144.469 138.328L143.969 138.334L144 140.788L144.5 140.781ZM144.469 138.328V138.828H149.812V138.328V137.828H144.469V138.328ZM149.812 138.328V138.828C150.95 138.828 151.937 138.632 152.747 138.209L152.516 137.766L152.284 137.322C151.657 137.65 150.841 137.828 149.812 137.828V138.328ZM152.516 137.766L152.752 138.206C153.546 137.781 154.16 137.201 154.576 136.465L154.141 136.219L153.705 135.973C153.392 136.528 152.923 136.98 152.279 137.325L152.516 137.766ZM154.141 136.219L154.576 136.465C154.985 135.74 155.188 134.941 155.188 134.078H154.688H154.188C154.188 134.778 154.025 135.406 153.705 135.973L154.141 136.219ZM154.688 134.078H155.188C155.188 133.137 155.002 132.289 154.615 131.549L154.172 131.781L153.729 132.013C154.029 132.586 154.188 133.269 154.188 134.078H154.688ZM154.172 131.781L154.615 131.549C154.216 130.787 153.589 130.21 152.763 129.815L152.547 130.266L152.331 130.717C152.984 131.029 153.441 131.463 153.729 132.013L154.172 131.781ZM152.547 130.266L152.77 129.818C151.949 129.408 150.922 129.219 149.719 129.219V129.719V130.219C150.828 130.219 151.686 130.394 152.323 130.713L152.547 130.266ZM149.719 129.719V129.219H145.203V129.719V130.219H149.719V129.719ZM145.203 129.719H144.703V150H145.203H145.703V129.719H145.203ZM145.203 150V149.5H142.188V150V150.5H145.203V150ZM142.188 150H142.688V127.25H142.188H141.688V150H142.188ZM155.484 150L155.925 149.764L150.394 139.451L149.953 139.688L149.513 139.924L155.044 150.236L155.484 150ZM149.953 139.688L149.956 140.187L153.096 140.172L153.094 139.672L153.091 139.172L149.951 139.188L149.953 139.688ZM153.094 139.672L152.656 139.914L158.266 150.055L158.703 149.812L159.141 149.57L153.531 139.43L153.094 139.672ZM158.703 149.812H158.203V150H158.703H159.203V149.812H158.703ZM158.703 150V149.5H155.484V150V150.5H158.703V150Z" fill="black"/>
<path d="M100 0C86.8678 -1.566e-07 73.8642 2.58658 61.7317 7.61205C49.5991 12.6375 38.5752 20.0035 29.2893 29.2893C20.0035 38.5752 12.6375 49.5991 7.61205 61.7317C2.58658 73.8642 -4.17426e-07 86.8678 0 100C4.17426e-07 113.132 2.58658 126.136 7.61205 138.268C12.6375 150.401 20.0035 161.425 29.2893 170.711C38.5752 179.997 49.5991 187.362 61.7317 192.388C73.8642 197.413 86.8678 200 100 200L100 188.045C88.4377 188.045 76.9886 185.768 66.3065 181.343C55.6243 176.919 45.9182 170.433 37.7424 162.258C29.5667 154.082 23.0813 144.376 18.6566 133.694C14.2319 123.011 11.9545 111.562 11.9545 100C11.9545 88.4377 14.2319 76.9886 18.6566 66.3064C23.0813 55.6243 29.5667 45.9182 37.7424 37.7424C45.9182 29.5667 55.6243 23.0813 66.3064 18.6566C76.9886 14.2319 88.4377 11.9545 100 11.9545L100 0Z" fill="#187660"/>
<path d="M100 0C113.132 1.566e-07 126.136 2.58658 138.268 7.61205C150.401 12.6375 161.425 20.0035 170.711 29.2893C179.997 38.5752 187.362 49.5991 192.388 61.7317C197.413 73.8642 200 86.8678 200 100C200 113.132 197.413 126.136 192.388 138.268C187.362 150.401 179.997 161.425 170.711 170.711C161.425 179.997 150.401 187.362 138.268 192.388C126.136 197.413 113.132 200 100 200L100 188C111.556 188 122.999 185.724 133.676 181.301C144.353 176.879 154.054 170.397 162.225 162.225C170.397 154.054 176.879 144.353 181.301 133.676C185.724 123 188 111.556 188 100C188 88.4437 185.724 77.0005 181.301 66.3239C176.879 55.6472 170.397 45.9462 162.225 37.7746C154.054 29.6031 144.353 23.121 133.676 18.6986C122.999 14.2762 111.556 12 100 12L100 0Z" fill="#4682B4"/>
<rect x="80" y="65" width="13" height="42" fill="#4682B4"/>
<rect x="134" y="57" width="13" height="35" fill="#4682B4"/>
<rect x="53" y="49" width="13" height="43" fill="#187660"/>
<rect x="107" y="44" width="13" height="40" fill="#187660"/>
<line x1="59.5" y1="92" x2="59.5" y2="100" stroke="black"/>
<line x1="59.5" y1="92" x2="59.5" y2="102" stroke="black"/>
<line x1="86.5" y1="107" x2="86.5" y2="117" stroke="black"/>
<line x1="86.5" y1="55" x2="86.5" y2="65" stroke="black"/>
<line x1="113.5" y1="34" x2="113.5" y2="44" stroke="black"/>
<line x1="113.5" y1="84" x2="113.5" y2="94" stroke="black"/>
<line x1="140.5" y1="92" x2="140.5" y2="102" stroke="black"/>
<line x1="140.5" y1="47" x2="140.5" y2="57" stroke="black"/>
<line x1="59.5" y1="39" x2="59.5" y2="49" stroke="black"/>
<line x1="59.5" y1="92" x2="59.5" y2="102" stroke="black"/>
<defs>
<filter id="filter0_i_91_196" x="41.0518" y="126.75" width="118.151" height="27.75" filterUnits="userSpaceOnUse" color-interpolation-filters="sRGB">
<feFlood flood-opacity="0" result="BackgroundImageFix"/>
<feBlend mode="normal" in="SourceGraphic" in2="BackgroundImageFix" result="shape"/>
<feColorMatrix in="SourceAlpha" type="matrix" values="0 0 0 0 0 0 0 0 0 0 0 0 0 0 0 0 0 0 127 0" result="hardAlpha"/>
<feOffset dy="4"/>
<feGaussianBlur stdDeviation="2"/>
<feComposite in2="hardAlpha" operator="arithmetic" k2="-1" k3="1"/>
<feColorMatrix type="matrix" values="0 0 0 0 0 0 0 0 0 0 0 0 0 0 0 0 0 0 0.25 0"/>
<feBlend mode="normal" in2="shape" result="effect1_innerShadow_91_196"/>
</filter>
</defs>
</svg>
